<svg t="1706170537143" class="icon" viewBox="0 0 1024 1024" version="1.1" xmlns="http://www.w3.org/2000/svg" p-id="1642" width="200" height="200"><path d="M945.475396 1023.380215H77.137284A83.917178 83.917178 0 0 1 0 940.230573V140.71478A77.96878 77.96878 0 0 1 77.137284 63.961263H255.845054V0h63.961263v63.961263h383.767581V0h63.961264v63.961263h184.336361A60.25151 60.25151 0 0 1 1023.380215 127.922527v831.496425a68.822319 68.822319 0 0 1-77.904819 63.961263zM959.418952 127.922527h-191.88379v63.961263h-63.961264V127.922527H319.806317v63.961263H255.845054V127.922527H63.961263v127.922527h895.457689V127.922527z m0 191.88379H63.961263v639.612635h895.457689V319.806317zM418.370624 427.197279L319.806317 511.690108h511.690108v63.961263H191.88379l184.464284-191.88379zM641.019782 895.457688l-42.086511-43.429697L703.573898 767.535162H191.88379v-63.961264h639.612635z" p-id="1643"></path></svg>