<svg t="1711354958419" class="icon" viewBox="0 0 1024 1024" version="1.1" xmlns="http://www.w3.org/2000/svg" p-id="6362" width="200" height="200"><path d="M332.8 903.68l73.216-175.104H249.856l257.536-247.808-71.68 172.032h143.872l-246.784 250.88zM257.024 146.944c0-22.528 19.456-40.96 43.52-40.96h244.224c24.064 0 43.52 18.432 43.52 40.96v228.864c0 22.528-19.456 40.96-43.52 40.96H300.032c-24.064 0-43.52-18.432-43.52-40.96 0.512 0 0.512-228.864 0.512-228.864z m660.48 62.464c-32.768-27.648-88.064-73.216-104.448-89.088-9.216-8.704-31.232-14.336-45.568 0-14.336 13.824-7.68 31.744 2.56 40.96 14.848 13.312 47.104 38.912 66.048 57.856-15.36 17.92-41.472 36.864-57.344 53.76-2.048 2.048-2.048 4.608-2.048 5.632 0 9.728 0.512 15.872 0.512 19.968 0 3.584 4.608 5.12 6.144 5.12h81.408c5.12 0 6.656 5.12 6.656 5.12v492.032c0 27.648-15.872 35.84-32.256 35.84-16.384 0-33.792-8.704-33.792-35.84V398.848c0-36.352-4.608-53.248-48.128-54.784-10.752-0.512-53.76 0-77.312 0V87.04c0-33.792-29.184-61.44-65.024-61.44H219.648c-35.84 0-65.024 27.136-65.024 61.44v822.784h-37.376c-14.848 0-26.624 11.264-26.624 25.088v36.864c0 14.336 12.288 26.112 26.624 26.112h598.528c14.336 0 26.624-12.8 26.624-26.112v-36.864c0-14.336-12.288-25.088-26.624-25.088h-35.84V402.432h44.544c15.872 0 17.408 14.848 17.408 14.848v387.584c0 98.816 87.04 99.84 96.768 99.84 13.312 0 94.72 0 94.72-98.816V237.056c0.512 0 1.024-13.312-15.872-27.648z" p-id="6363" ></path></svg>