<svg t="1711354904111" class="icon" viewBox="0 0 1069 1024" version="1.1" xmlns="http://www.w3.org/2000/svg" p-id="4305" width="200" height="200"><path d="M1039.290906 441.423544l-143.387095-132.234765V76.583047a75.942054 75.942054 0 0 0-19.118279-53.106331 62.134408 62.134408 0 0 0-46.733572-21.242533 63.196534 63.196534 0 0 0-46.733571 21.242533 75.942054 75.942054 0 0 0-19.11828 53.106331v111.523296L578.859013 17.103956a62.665471 62.665471 0 0 0-46.733572-16.994026 62.665471 62.665471 0 0 0-46.733572 16.994026l-460.431893 424.850652a75.942054 75.942054 0 0 0-23.366786 49.388888 80.721624 80.721624 0 0 0 15.400836 53.106331 62.665471 62.665471 0 0 0 44.609318 25.491039 63.727598 63.727598 0 0 0 48.326762-16.462962l424.850651-390.331536 424.850652 390.331536a64.789724 64.789724 0 0 0 47.795698 15.931899 63.727598 63.727598 0 0 0 44.609319-24.959976 79.659497 79.659497 0 0 0 15.400836-53.106331 77.004181 77.004181 0 0 0-22.835723-49.388888z"  p-id="4306"></path><path d="M531.063314 251.833941l-411.043005 371.74432v312.265229a92.93608 92.93608 0 0 0 23.366786 62.134408 77.004181 77.004181 0 0 0 56.823774 26.022102h661.70489a77.004181 77.004181 0 0 0 56.823775-26.022102 92.93608 92.93608 0 0 0 23.366785-62.134408v-318.637989zM424.850651 931.06392l73.286738-212.425326H356.874547l209.770009-250.130821-67.445041 175.781957h147.104538z"  p-id="4307"></path></svg>