<svg t="1704680821886" class="icon" viewBox="0 0 1024 1024" version="1.1" xmlns="http://www.w3.org/2000/svg" p-id="7166" width="200" height="200"><path d="M864 12c70.692 0 128 57.308 128 128v744c0 70.692-57.308 128-128 128H160c-70.692 0-128-57.308-128-128V140C32 69.308 89.308 12 160 12h704z m0 88H160c-21.87 0-39.641 17.552-40 39.339V884c0 21.87 17.552 39.641 39.339 40H864c21.87 0 39.641-17.552 40-39.339V140c0-21.87-17.552-39.641-39.339-40H864z" p-id="7167"></path><path d="M512 678c35.346 0 64 28.654 64 64 0 35.346-28.654 64-64 64-35.346 0-64-28.654-64-64 0-35.346 28.654-64 64-64z m60-460l-20 400h-80l-20-400h120z" p-id="7168"></path></svg>